<svg width="35" height="17" viewBox="0 0 35 17" fill="none" xmlns="http://www.w3.org/2000/svg">
<path d="M3.49998 13L4.49998 12L5.49998 13L6.49998 12L7.49998 13L8.49998 12L9.49998 13L10.5 12L11.5 13L12.5 12L13.5 13L14.5 12L15.5 13L16.5 12L17.5 13L18.5 12L19.5 13L20.5 12L21.5 13L22.5 12L23.5 13L24.5 12L25.5 13L26.5 12L27.5 13L28.5 12L29.5 13L30.5 12L31.5 13V13.5L30.5 12.5L29.5 13.5L28.5 12.5L27.5 13.5L26.5 12.5L25.5 13.5L24.5 12.5L23.5 13.5L22.5 12.5L21.5 13.5L20.5 12.5L19.5 13.5L18.5 12.5L17.5 13.5L16.5 12.5L15.5 13.5L14.5 12.5L13.5 13.5L12.5 12.5L11.5 13.5L10.5 12.5L9.49998 13.5L8.49998 12.5L7.49998 13.5L6.49998 12.5L5.49998 13.5L4.49998 12.5L3.49998 13.5V13Z" fill="#FF0000"/>
<path fill-rule="evenodd" clip-rule="evenodd" d="M35 11V14.5C35 15.328 33.328 17 32.5 17H2.5C1.671 17 0 15.328 0 14.5V11V6V2.5C0 1.672 1.671 0 2.5 0H32.5C33.328 0 35 1.672 35 2.5V6V11ZM2.5 15C2.224 15 2 14.776 2 14.5V11V6V2.5C2 2.224 2.224 2 2.5 2H32.5C32.776 2 33 2.224 33 2.5V6V11V14.5C33 14.776 32.776 15 32.5 15H2.5Z" fill="#3A2A3E"/>
<path d="M31 8H32V8.99295L31 9V8Z" fill="#3A2A3E"/>
<path d="M32 6H31V5H32V6Z" fill="#3A2A3E"/>
<path fill-rule="evenodd" clip-rule="evenodd" d="M26.2 3.01423C24.0022 3.01231 23.3 4.01058 23.3 6.99994C23.3 9.98929 24.2666 10.9857 26.2 10.9859C28.1333 10.9857 29.1 9.98919 29.1 6.99983C29.1 4.01047 28.3977 3.01232 26.2 3.01423ZM25.2333 6.99994C25.2333 6.00348 25.2333 5.00703 26.2 5.00703C27.1666 5.00703 27.1666 6.00338 27.1666 6.99983C27.1666 7.99628 27.1666 8.99284 26.2 8.99284C25.2333 8.99284 25.2333 7.99639 25.2333 6.99994Z" fill="#3A2A3E"/>
<path fill-rule="evenodd" clip-rule="evenodd" d="M16.5333 3.01409V10.9857C19.4333 10.986 22.3333 11.4549 22.3333 7.00002C22.3333 2.54519 19.4333 3.01434 16.5333 3.01409ZM18.4666 8.99293V5.00712C19.9399 5.0737 20.4242 5.44814 20.4 7.00002C20.4437 8.54306 20.0038 8.96353 18.4666 8.99293Z" fill="#3A2A3E"/>
<path fill-rule="evenodd" clip-rule="evenodd" d="M12.6666 3.01455C10.4689 3.01263 9.76664 4.01089 9.76664 7.00025C9.76664 9.98961 10.7333 10.9861 12.6666 10.9862C14.6 10.9861 15.5666 9.98951 15.5666 7.00015C15.5666 4.01079 14.8644 3.01263 12.6666 3.01455ZM11.7 7.00025C11.7 6.0038 11.7 5.00735 12.6666 5.00735C13.6333 5.00735 13.6333 6.0037 13.6333 7.00015C13.6333 7.9966 13.6333 8.99316 12.6666 8.99316C11.7 8.99316 11.7 7.9967 11.7 7.00025Z" fill="#3A2A3E"/>
<path d="M8.79998 4.99154V3.01423H2.99998V4.99154L4.93331 5.00714V10.9859H6.86664V5.00714L8.79998 4.99154Z" fill="#3A2A3E"/>
</svg>
